<?xml version="1.0" encoding="iso-8859-1"?>
<!-- Generator: Adobe Illustrator 19.0.0, SVG Export Plug-In . SVG Version: 6.00 Build 0)  -->
<svg version="1.1" id="Capa_1" xmlns="http://www.w3.org/2000/svg" xmlns:xlink="http://www.w3.org/1999/xlink" x="0px" y="0px"
	 viewBox="0 0 480 480" style="enable-background:new 0 0 480 480;" xml:space="preserve">

<g>
	<path d="M416,80H64c-4.418,0-8,3.582-8,8v208c0,4.418,3.582,8,8,8h32v40c0,4.418,3.582,8,8,8h24v40c0,4.418,3.582,8,8,8h208
		c4.418,0,8-3.582,8-8v-40h32c4.418,0,8-3.582,8-8v-40h24c4.418,0,8-3.582,8-8V88C424,83.582,420.418,80,416,80z M408,288h-24
		c-4.418,0-8,3.582-8,8v40h-32c-4.418,0-8,3.582-8,8v40H144v-40c0-4.418-3.582-8-8-8h-24v-40c0-4.418-3.582-8-8-8H72V96h64v80
		c0,4.418,3.582,8,8,8s8-3.582,8-8V96h16v80c0,4.418,3.582,8,8,8s8-3.582,8-8V96h16v80c0,4.418,3.582,8,8,8s8-3.582,8-8V96h16v80
		c0,4.418,3.582,8,8,8s8-3.582,8-8V96h16v80c0,4.418,3.582,8,8,8s8-3.582,8-8V96h16v80c0,4.418,3.582,8,8,8s8-3.582,8-8V96h16v80
		c0,4.418,3.582,8,8,8s8-3.582,8-8V96h64V288z"/>
</g>

<g>
	<path d="M456,0H24C10.745,0,0,10.745,0,24v432c0,13.255,10.745,24,24,24h432c13.255,0,24-10.745,24-24V24
		C480,10.745,469.255,0,456,0z M464,456c0,4.418-3.582,8-8,8H24c-4.418,0-8-3.582-8-8V24c0-4.418,3.582-8,8-8h432
		c4.418,0,8,3.582,8,8V456z"/>
</g>


</svg>
